<svg xmlns="http://www.w3.org/2000/svg" viewBox="166 100 293 425" role="img" aria-label="Clipboard icon">
<path fill="#c7a55b" fill-rule="evenodd" d="M184.0,152.0 L170.0,176.0 L170.0,490.0 L176.0,505.0 L201.0,521.0 L424.0,521.0 L439.0,515.0 L455.0,490.0 L455.0,176.0 L450.0,162.0 L426.0,145.0 L380.0,145.0 L376.0,127.0 L345.0,125.0 L341.0,104.0 L284.0,104.0 L280.0,125.0 L249.0,127.0 L245.0,145.0 L199.0,145.0 Z M192.0,160.0 L200.0,156.0 L245.0,156.0 L246.0,169.0 L251.0,174.0 L374.0,174.0 L379.0,169.0 L380.0,156.0 L425.0,156.0 L440.0,167.0 L444.0,176.0 L444.0,489.0 L431.0,507.0 L202.0,510.0 L184.0,497.0 L181.0,177.0 Z M257.0,139.0 L259.0,137.0 L366.0,137.0 L368.0,139.0 L368.0,162.0 L367.0,163.0 L259.0,163.0 L257.0,161.0 Z M291.0,116.0 L292.0,115.0 L333.0,115.0 L334.0,116.0 L334.0,125.0 L333.0,126.0 L292.0,126.0 L291.0,125.0 Z"/>
<path fill="#c7a55b" d="M269.0,444.0 L270.0,448.0 L275.0,451.0 L277.0,450.0 L278.0,451.0 L411.0,451.0 L414.0,450.0 L417.0,446.0 L417.0,444.0 L414.0,440.0 L272.0,440.0 Z"/>
<path fill="#c7a55b" d="M273.0,416.0 L270.0,412.0 L265.0,412.0 L231.0,446.0 L229.0,446.0 L217.0,434.0 L215.0,433.0 L212.0,433.0 L209.0,436.0 L208.0,438.0 L209.0,440.0 L209.0,442.0 L226.0,459.0 L228.0,460.0 L232.0,460.0 L234.0,459.0 L272.0,421.0 L273.0,419.0 Z"/>
<path fill="#c7a55b" d="M269.0,379.0 L270.0,383.0 L274.0,386.0 L411.0,386.0 L414.0,385.0 L417.0,381.0 L417.0,379.0 L414.0,375.0 L272.0,375.0 Z"/>
<path fill="#c7a55b" d="M273.0,351.0 L271.0,348.0 L269.0,347.0 L265.0,347.0 L231.0,381.0 L229.0,381.0 L217.0,369.0 L215.0,368.0 L212.0,368.0 L209.0,371.0 L208.0,373.0 L209.0,375.0 L209.0,377.0 L226.0,394.0 L228.0,395.0 L232.0,395.0 L234.0,394.0 L272.0,356.0 L273.0,354.0 Z"/>
<path fill="#c7a55b" d="M269.0,314.0 L270.0,318.0 L274.0,321.0 L412.0,321.0 L417.0,316.0 L417.0,314.0 L414.0,310.0 L272.0,310.0 Z"/>
<path fill="#c7a55b" d="M273.0,286.0 L271.0,283.0 L269.0,282.0 L265.0,282.0 L230.0,317.0 L217.0,304.0 L215.0,303.0 L212.0,303.0 L209.0,306.0 L208.0,308.0 L209.0,310.0 L209.0,312.0 L227.0,330.0 L232.0,330.0 L234.0,329.0 L272.0,291.0 L273.0,289.0 Z"/>
<path fill="#c7a55b" d="M269.0,249.0 L270.0,253.0 L274.0,256.0 L412.0,256.0 L417.0,251.0 L417.0,249.0 L414.0,245.0 L272.0,245.0 Z"/>
<path fill="#c7a55b" d="M273.0,221.0 L271.0,218.0 L269.0,217.0 L265.0,217.0 L230.0,252.0 L217.0,239.0 L215.0,238.0 L213.0,238.0 L209.0,241.0 L208.0,243.0 L209.0,245.0 L209.0,247.0 L227.0,265.0 L233.0,265.0 L272.0,226.0 L273.0,224.0 Z"/>
</svg>