<svg xmlns="http://www.w3.org/2000/svg" viewBox="0 0 135 250" width="135" height="250">
	<style>
		tspan { white-space:pre }
		.shp0 { fill: #e04307 } 
		.shp1 { fill: #54565a } 
	</style>
	<g >
		<path class="shp0" d="M87.37 8.73C83.61 12.94 80.1 16.9 79.56 17.52L78.59 18.66C82.02 28.68 82.88 30.81 83.14 30.87C83.39 30.92 84.79 29.37 86.87 26.74C88.69 24.42 90.34 22.22 90.52 21.86C90.7 21.49 91.7 17.17 92.75 12.26C93.8 7.35 94.71 2.82 94.77 2.2C94.84 1.41 94.77 1.07 94.53 1.07C94.35 1.07 91.12 4.51 87.37 8.73ZM104.84 9.42C104.41 9.88 100.41 14.94 95.95 20.66C91.49 26.37 87.1 32.01 86.2 33.18L84.55 35.31C87.24 43.58 88.16 46.06 88.32 46.17C88.49 46.28 88.68 46.37 88.75 46.38C88.83 46.39 91.68 43.99 95.1 41.06C98.52 38.12 101.37 35.5 101.45 35.25C101.52 34.99 101.75 33.76 101.97 32.52C102.18 31.27 102.79 27.73 103.32 24.65C103.85 21.58 104.64 16.96 105.08 14.39C105.53 11.83 105.83 9.47 105.75 9.15C105.62 8.59 105.58 8.6 104.84 9.42ZM75.41 22.59C75.21 22.99 74.76 25.3 74.4 27.72C74.04 30.14 72.94 37.32 71.96 43.69L70.17 55.26C70.99 56.33 72.66 58.38 74.42 60.5C76.18 62.63 78.05 64.82 78.58 65.37C79.1 65.92 79.65 66.37 79.8 66.37C79.94 66.37 81.65 63.58 83.59 60.17L87.12 53.97C83.38 43.23 80.96 36.21 79.34 31.45C77.71 26.69 76.29 22.73 76.19 22.65C76.09 22.58 75.95 22.37 75.88 22.19C75.81 21.99 75.61 22.16 75.41 22.59Z" />
		<path class="shp1" d="M133.99 35.92C133.83 36 132.33 37.04 130.67 38.24C129.01 39.44 125.66 41.74 123.24 43.36C120.81 44.98 117.68 47.02 116.29 47.9C114.89 48.77 112 50.52 109.87 51.77C107.74 53.03 103.95 55.07 101.45 56.32C98.95 57.56 96.64 58.65 96.3 58.74C95.93 58.84 95.6 59.23 95.43 59.77C95.25 60.35 95.16 83.35 95.16 128.8L95.17 196.96C90.92 198.94 88.24 200.5 86.48 201.7C84.72 202.89 82.01 204.92 80.47 206.2C78.92 207.48 75.79 210.4 73.51 212.68C71.24 214.97 68.05 218.43 66.43 220.38C64.81 222.32 62.47 225.34 61.22 227.08C59.97 228.83 58.17 231.49 57.23 233C56.28 234.51 54.82 237.06 53.97 238.67C53.12 240.29 51.82 243.01 51.07 244.74C50.33 246.46 49.72 248.11 49.72 248.4C49.72 248.7 49.9 248.93 50.12 248.93C50.34 248.93 51.47 248.12 52.62 247.13C53.77 246.15 55.84 244.49 57.23 243.45C58.61 242.41 60.56 241 61.55 240.32C62.54 239.63 64.89 238.15 66.76 237.03C68.64 235.9 72.1 234.04 74.45 232.89C76.8 231.74 80.53 230.09 82.74 229.22C84.94 228.36 88.49 227.11 90.62 226.45C92.76 225.79 96.18 224.83 98.24 224.32C100.3 223.81 103.85 223.02 106.13 222.57C108.41 222.12 110.87 221.64 111.61 221.49C112.34 221.35 114.51 220.99 116.42 220.69C118.33 220.39 120.98 219.97 122.3 219.76C123.64 219.55 124.8 219.22 124.9 219.03C125.01 218.84 125.1 185.01 125.1 143.86L125.11 69.03C127.64 60.46 128.97 55.93 129.7 53.44C130.43 50.95 131.33 47.89 131.69 46.64C132.06 45.4 132.84 42.76 133.42 40.78C134.01 38.8 134.44 36.87 134.39 36.48C134.33 36.1 134.15 35.85 133.99 35.92ZM60.28 67.99C58.81 68.27 55.26 68.79 52.4 69.15C49.53 69.51 44.84 70.01 41.97 70.27C38.05 70.61 34.01 70.73 25.66 70.73C16.9 70.72 13.7 70.63 10.43 70.26C8.15 70 5.26 69.62 4.01 69.4C2.76 69.19 1.59 69.08 1.4 69.15C1.22 69.23 1.08 69.45 1.08 69.63C1.09 69.81 5.45 73.4 10.77 77.61C16.1 81.82 23.49 87.66 27.2 90.6L33.95 95.95C33.98 199.74 34.09 230.12 34.22 230.41C34.41 230.87 34.45 230.88 34.47 230.48C34.48 230.22 34.58 230.01 34.69 230.02C34.8 230.02 35.36 228.85 35.94 227.42C36.52 225.99 37.84 223.13 38.88 221.08C39.92 219.03 41.81 215.79 43.08 213.89C44.35 211.98 46.35 209.28 47.52 207.89C48.69 206.5 50.84 204.23 52.29 202.84C53.75 201.46 56.02 199.5 57.34 198.48C58.66 197.46 60.59 196.06 61.62 195.37C62.65 194.69 63.58 193.92 63.69 193.68C63.8 193.43 63.89 185.22 63.89 175.44L63.89 157.65L88.35 145.39C88.47 129.28 88.44 124.21 88.36 123.73C88.28 123.26 88.07 122.82 87.88 122.75C87.7 122.69 86.47 123.1 85.14 123.66C83.82 124.22 80.75 125.55 78.33 126.6C75.9 127.66 71.72 129.47 69.04 130.63C66.35 131.78 64.1 132.73 64.02 132.73C63.95 132.73 63.89 118.22 63.89 100.48C63.89 72.17 63.84 68.18 63.49 67.83C63.27 67.61 63.06 67.45 63.02 67.46C62.99 67.48 61.75 67.72 60.28 67.99Z" />
	</g>
</svg>