<svg xmlns="http://www.w3.org/2000/svg" viewBox="0 0 203 250" width="203" height="250">
	<style>
		tspan { white-space:pre }
		.shp0 { fill: #102f4f } 
		.shp1 { fill: #fdfefe } 
		.shp2 { fill: #e61d2f } 
	</style>
	<g >
		<path class="shp0" d="M91 0.28C89.28 0.4 86.3 0.61 84.38 0.76C82.45 0.9 79.86 1.14 78.63 1.27C77.39 1.41 74.63 1.75 72.5 2.03C70.37 2.31 67.33 2.76 65.75 3.03C64.17 3.31 61.47 3.8 59.75 4.14C58.03 4.48 55.33 5.05 53.75 5.42C52.17 5.78 49.02 6.58 46.75 7.19C44.48 7.8 42.06 8.45 41.38 8.64C40.69 8.82 37.54 9.82 34.38 10.86C29.22 12.55 28.53 12.84 27.67 13.69C27.15 14.21 26.68 14.86 26.63 15.14C26.58 15.42 26.4 16.54 26.25 17.64C26.09 18.74 25.8 20.12 25.6 20.71C25.41 21.29 24.91 22.45 24.5 23.27C24.09 24.1 23.04 25.53 22.16 26.46C21.29 27.39 19.85 28.63 18.97 29.21C18.09 29.79 16.53 30.55 15.5 30.9C14.47 31.25 12.84 31.61 11.88 31.7C10.91 31.79 9.68 32.07 9.13 32.31C8.57 32.56 7.88 33.13 7.59 33.59C7.29 34.04 6.82 35.54 6.53 36.91C6.24 38.29 5.67 41.27 5.26 43.54C4.85 45.81 4.34 48.8 4.12 50.18C3.91 51.55 3.47 54.48 3.14 56.68C2.81 58.88 2.31 62.54 2.03 64.81C1.75 67.09 1.4 70.13 1.26 71.57C1.11 73.02 0.93 74.76 0.86 75.45C0.8 76.14 0.58 79.29 0.37 82.46C0.17 85.62 0 89.9 0 91.97C0 94.03 0.17 98.42 0.37 101.73C0.57 105.03 0.8 108.35 0.88 109.11C0.96 109.87 1.25 112.34 1.53 114.61C1.81 116.89 2.31 120.38 2.65 122.37C2.98 124.37 3.54 127.35 3.89 129C4.24 130.66 4.87 133.41 5.28 135.14C5.7 136.86 6.15 138.6 6.27 139.01C6.39 139.43 6.9 141.12 7.4 142.77C7.9 144.42 8.62 146.73 9.01 147.9C9.4 149.07 10.05 150.98 10.46 152.15C10.87 153.32 11.67 155.46 12.25 156.91C12.82 158.35 13.44 159.87 13.62 160.29C13.8 160.7 14.48 162.22 15.13 163.66C15.78 165.11 16.77 167.25 17.33 168.42C17.89 169.59 19.38 172.46 20.64 174.8C21.9 177.14 23.75 180.41 24.76 182.06C25.76 183.71 27.25 186.07 28.08 187.31C28.91 188.55 30.38 190.69 31.35 192.07C32.33 193.44 33.8 195.47 34.62 196.57C35.45 197.68 37.25 199.93 38.62 201.58C39.99 203.23 41.17 204.64 41.24 204.7C41.32 204.77 42.1 205.67 42.99 206.71C43.88 207.74 45.34 209.36 46.24 210.3C47.14 211.25 48.96 213.11 50.29 214.43C51.61 215.76 53.47 217.58 54.41 218.48C55.35 219.38 56.97 220.84 58 221.73C59.03 222.62 59.93 223.41 60 223.47C60.07 223.54 61.48 224.74 63.13 226.13C64.78 227.51 68.38 230.34 71.13 232.41C73.88 234.47 77.81 237.29 79.88 238.67C81.94 240.04 84.58 241.76 85.75 242.48C86.92 243.21 89 244.45 90.38 245.24C91.75 246.03 93.94 247.25 95.25 247.96C96.77 248.78 98.28 249.37 99.44 249.62C100.46 249.83 101.71 249.94 102.31 249.85C102.9 249.77 103.94 249.53 104.63 249.31C105.31 249.1 107.62 247.97 109.75 246.8C111.88 245.63 115.62 243.42 118.06 241.89C120.5 240.37 123.86 238.16 125.52 236.99C127.19 235.82 130.08 233.7 131.96 232.29C133.84 230.87 136.12 229.13 137.02 228.41C137.93 227.69 139.28 226.6 140.02 225.98C140.75 225.36 142.71 223.67 144.37 222.22C146.02 220.78 149.52 217.46 152.15 214.84C154.77 212.23 157.93 208.96 159.16 207.58C160.4 206.21 162.48 203.79 163.8 202.2C165.11 200.62 167.41 197.69 168.91 195.7C170.4 193.7 172.63 190.55 173.86 188.69C175.08 186.83 176.39 184.86 176.76 184.31C177.14 183.76 178.43 181.62 179.64 179.55C180.85 177.49 183.06 173.38 184.55 170.42C186.04 167.46 187.95 163.41 188.79 161.41C189.64 159.42 190.88 156.32 191.56 154.53C192.24 152.74 193.27 149.81 193.87 148.02C194.46 146.23 195.18 143.98 195.46 143.02C195.75 142.05 196.31 140.08 196.71 138.64C197.12 137.19 197.75 134.66 198.12 133.01C198.5 131.36 199.02 128.99 199.28 127.75C199.53 126.51 199.97 124.15 200.24 122.5C200.51 120.85 200.9 118.31 201.1 116.87C201.3 115.42 201.59 113.11 201.73 111.74C201.88 110.36 202.11 107.88 202.25 106.23C202.39 104.58 202.61 100.58 202.75 97.35C202.95 92.72 202.92 89.98 202.62 84.46C202.42 80.61 202.19 76.95 202.13 76.33C202.06 75.71 201.89 73.96 201.75 72.45C201.61 70.93 201.38 68.85 201.25 67.82C201.12 66.79 200.78 64.08 200.49 61.81C200.21 59.54 199.76 56.3 199.49 54.62C199.22 52.93 198.77 50.12 198.49 48.36C198.21 46.61 197.88 44.66 197.75 44.04C197.63 43.42 197.16 41 196.71 38.66C196.17 35.85 195.72 34.15 195.38 33.66C195.1 33.25 194.37 32.65 193.75 32.34C193.13 32.03 192.18 31.78 191.63 31.78C191.07 31.79 189.78 31.57 188.75 31.31C187.72 31.05 186.28 30.55 185.56 30.19C184.84 29.82 183.6 29.04 182.81 28.44C182.02 27.84 180.79 26.63 180.08 25.75C179.37 24.87 178.4 23.3 177.93 22.27C177.38 21.06 176.97 19.64 176.77 18.27C176.6 17.1 176.36 15.72 176.23 15.2C176.08 14.59 175.67 13.99 175.06 13.49C174.43 12.98 172.9 12.31 170.38 11.46C168.31 10.76 165.16 9.75 163.38 9.2C161.59 8.66 159.11 7.94 157.88 7.6C156.64 7.27 153.32 6.45 150.5 5.79C147.68 5.12 144.7 4.45 143.88 4.28C143.05 4.11 141.47 3.8 140.38 3.6C139.28 3.39 137.76 3.12 137 3C136.24 2.88 133.66 2.51 131.25 2.17C128.84 1.83 125.75 1.43 124.38 1.28C123 1.14 120.3 0.9 118.38 0.76C116.45 0.62 113.13 0.39 111 0.25C108.87 0.11 104.2 0.01 100.63 0.04C97.05 0.06 92.72 0.17 91 0.28Z" />
		<path fill-rule="evenodd" class="shp1" d="M103.25 7.64C108.41 7.69 114.09 7.84 115.88 7.99C117.66 8.13 120.31 8.37 121.75 8.52C123.19 8.67 126.46 9.07 129 9.41C131.54 9.76 135.14 10.32 137 10.66C138.86 11 141.72 11.56 143.38 11.91C145.03 12.26 148.18 13 150.38 13.54C152.57 14.09 155.72 14.94 157.38 15.42C159.03 15.91 162.4 16.97 164.88 17.79C167.35 18.6 169.74 19.49 170.19 19.77C170.63 20.04 171.22 20.72 171.5 21.27C171.78 21.82 172 22.75 172 23.34C172.01 23.92 172.19 25.08 172.4 25.9C172.62 26.73 173.2 28.19 173.68 29.15C174.29 30.35 175.17 31.51 176.47 32.81C177.96 34.3 178.84 34.94 180.5 35.73C181.67 36.29 183.3 36.87 184.13 37.01C184.95 37.15 186.13 37.33 186.75 37.41C187.37 37.48 188.24 37.77 188.69 38.04C189.13 38.32 189.67 38.88 189.88 39.29C190.08 39.7 190.58 41.76 190.99 43.86C191.4 45.96 192.13 50.04 192.61 52.93C193.09 55.82 193.77 60.15 194.11 62.56C194.45 64.97 194.9 68.41 195.11 70.2C195.32 71.98 195.66 75.25 195.86 77.45C196.07 79.65 196.36 83.99 196.51 87.09C196.65 90.18 196.74 92.74 196.7 92.76C196.66 92.78 195.11 92.3 193.25 91.69C191.26 91.04 189.41 90.59 188.75 90.59C188.08 90.59 187.1 90.85 186.31 91.22C185.46 91.62 184.56 91.84 183.75 91.84C183.06 91.84 181.07 91.46 179.31 90.99C177.56 90.53 174.32 89.73 172.13 89.21C169.93 88.7 167.79 88.08 167.38 87.85C166.96 87.62 165.25 86.34 163.56 85C161.88 83.67 160.42 82.58 160.31 82.58C160.21 82.58 158.44 82.29 156.38 81.94C154.24 81.57 152.19 81.36 151.63 81.43C151.07 81.51 150.01 81.98 149.25 82.48C148.49 82.98 147.54 83.55 147.13 83.76C146.71 83.97 145.81 84.14 145.13 84.13C144.44 84.13 142.02 83.89 139.75 83.61C137.48 83.33 133.66 82.93 131.25 82.73C128.84 82.52 125.16 82.23 123.06 82.09C120.97 81.95 118.97 81.72 118.63 81.58C118.28 81.44 117.1 80.71 116 79.95C114.17 78.7 113.88 78.58 112.63 78.58C111.52 78.58 111.23 78.49 111.14 78.14C111.09 77.9 110.96 70.33 110.7 44.92L109.87 42.04C109.42 40.46 108.93 38.69 108.78 38.1C108.62 37.52 108.42 37.03 108.31 37.03C108.21 37.03 107.96 37.48 107.75 38.04C107.54 38.6 107.29 39.05 107.19 39.05C107.08 39.04 106.93 38.67 106.85 38.23C106.77 37.78 105.91 33.98 104.94 29.78C103.98 25.58 103.12 21.42 103.03 20.52C102.89 19.07 102.81 18.89 102.31 18.83C102 18.8 101.75 18.68 101.75 18.58C101.74 18.48 101.68 18.17 101.61 17.89C101.48 17.42 101.63 17.38 107.75 17.02L107.75 15.14C107.75 13.29 107.74 13.26 107.06 13.13C106.68 13.06 105.53 13.12 104.5 13.26C103.47 13.41 102.32 13.47 101.94 13.4C101.26 13.26 101.25 13.28 101.25 14.58C101.25 15.3 101.11 16.54 100.94 17.33C100.69 18.44 100.51 18.78 100.13 18.83C99.72 18.88 99.61 19.12 99.55 20.02C99.5 20.64 99.03 23.06 98.5 25.4C97.97 27.74 97.05 31.77 96.46 34.35C95.86 36.93 95.32 39.04 95.25 39.04C95.18 39.04 94.93 38.56 94.69 37.97C94.43 37.34 94.17 37.01 94.04 37.16C93.93 37.3 93.37 39.16 91.78 45.17L91.64 56.18C91.56 62.24 91.41 69.74 91.13 78.53L89.63 78.63C88.29 78.72 87.93 78.87 86.31 80.03C85.32 80.75 84.22 81.44 83.88 81.58C83.53 81.72 80.75 82.01 77.69 82.22C74.63 82.43 69.99 82.82 67.38 83.09C64.76 83.36 61.39 83.73 59.88 83.92C58.17 84.12 56.77 84.17 56.19 84.04C55.67 83.93 54.52 83.33 53.63 82.71C52.57 81.98 51.63 81.53 50.94 81.44C50.3 81.35 48.39 81.55 46.13 81.94C44.06 82.29 42.32 82.57 42.25 82.57C42.18 82.57 40.55 83.78 38.63 85.27C35.63 87.58 34.89 88.04 33.5 88.41C32.61 88.64 30.24 89.23 28.25 89.71C26.26 90.19 23.33 90.92 21.75 91.33C19.34 91.96 18.7 92.04 17.81 91.84C17.23 91.7 16.3 91.37 15.75 91.09C15.19 90.81 14.25 90.59 13.63 90.59C13.01 90.59 11.23 91 9.69 91.5C8.14 92 6.71 92.48 6.52 92.56C6.21 92.7 6.18 92.1 6.33 88.34C6.43 85.93 6.62 82.61 6.75 80.96C6.89 79.3 7.12 76.77 7.26 75.33C7.4 73.88 7.69 71.29 7.89 69.57C8.09 67.85 8.49 64.81 8.77 62.81C9.05 60.82 9.72 56.54 10.26 53.3C10.8 50.07 11.58 45.68 12 43.54C12.55 40.79 12.93 39.45 13.32 38.93C13.63 38.53 14.32 37.99 14.88 37.75C15.43 37.5 16.32 37.3 16.88 37.29C17.43 37.29 18.55 37.12 19.38 36.91C20.2 36.7 21.72 36.12 22.75 35.61C24.11 34.94 25.14 34.18 26.52 32.8C27.91 31.41 28.66 30.41 29.33 29.03C29.83 28 30.41 26.36 30.61 25.4C30.82 24.44 30.99 23.28 31 22.84C31 22.39 31.16 21.71 31.35 21.33C31.54 20.96 31.97 20.4 32.29 20.09C32.63 19.77 34.61 18.95 37 18.14C39.27 17.37 43.6 16.03 46.63 15.15C49.65 14.28 54.43 13.05 57.25 12.42C60.07 11.79 64.29 10.94 66.63 10.54C68.96 10.13 72.17 9.63 73.75 9.41C75.33 9.19 78.14 8.85 80 8.65C81.86 8.45 85.17 8.17 87.38 8.02C89.58 7.87 91.94 7.71 92.63 7.66C93.31 7.61 98.09 7.6 103.25 7.64ZM97.06 86.36C97.17 86.35 97.25 86.62 97.25 86.96C97.25 87.31 97.17 87.63 97.06 87.68C96.96 87.73 96.12 87.85 95.19 87.93C93.69 88.07 93.51 88.04 93.56 87.66C93.61 87.37 94.12 87.11 95.25 86.81C96.14 86.58 96.96 86.37 97.06 86.36ZM91.75 89.34L97.25 89.34L97.25 91.59L94.5 91.59L94.5 93.59L97 93.59L97 95.85L94.5 95.85L94.5 98.35L97.25 98.35L97.25 100.6L95.06 100.6C93.86 100.61 92.62 100.66 91.75 100.85L91.75 95.1M107.22 89.34L113.25 89.34L113.25 90.47C113.25 91.55 113.22 91.59 111.75 91.59L111.75 96.1C111.75 98.57 111.65 100.67 111.54 100.75C111.42 100.83 110.8 100.83 109 100.6L109 91.59L108.19 91.53C107.42 91.47 107.37 91.4 107.3 90.4M126 90.09L126 101.6L125.44 101.48C125.13 101.41 124.51 101.36 123.25 101.35L123.21 95.76C123.19 92.69 123.23 90.13 123.31 90.07C123.39 90.01 124.03 89.99 126 90.09ZM76 90.09L78.75 90.09L78.75 99.35L81.5 99.35L81.5 100.23C81.5 101.02 81.43 101.11 80.69 101.21C80.24 101.28 79 101.39 76 101.6L76 95.85M65.44 91.12C65.65 91.1 65.75 91.47 65.75 92.22C65.75 93.31 65.73 93.35 64 93.59L64 98.1C64 101.88 63.94 102.62 63.63 102.73C63.42 102.8 62.86 102.85 61.5 102.85L61.38 93.97L60.56 94.03C59.76 94.09 59.75 94.08 59.75 92.97C59.75 92.07 59.84 91.84 60.19 91.82C60.43 91.81 61.64 91.65 62.88 91.48C64.11 91.3 65.27 91.14 65.44 91.12ZM139.14 91.34C139.75 91.34 140.62 91.5 141.06 91.68C141.51 91.87 142.13 92.3 142.44 92.62C142.85 93.05 143.06 93.67 143.19 94.78C143.37 96.34 143.37 96.35 142.75 96.35C142.41 96.35 141.76 96.27 141.31 96.16C140.56 95.99 140.49 95.89 140.49 95.03C140.5 94.52 140.33 93.93 140.13 93.72C139.92 93.51 139.64 93.4 139.5 93.47C139.35 93.54 139.25 95.01 139.25 97.1C139.25 100.05 139.31 100.63 139.65 100.79C139.9 100.91 140.13 100.84 140.27 100.6C140.39 100.39 140.49 99.75 140.5 99.16C140.5 98.13 140.52 98.1 141.31 98.1C141.76 98.1 142.38 98.16 142.69 98.23C143.18 98.33 143.25 98.5 143.25 99.6C143.25 100.29 143.13 101.16 142.98 101.54C142.83 101.92 142.52 102.36 142.29 102.53C142.06 102.7 141.2 102.84 140.38 102.85C139.21 102.86 138.68 102.74 138 102.29C137.52 101.97 136.98 101.43 136.81 101.09C136.58 100.65 136.51 99.35 136.63 92.55L137.33 91.94C137.84 91.5 138.33 91.34 139.14 91.34ZM47.94 93.62C48.38 93.61 48.75 93.68 48.75 93.78C48.76 93.88 49.03 96.33 49.37 99.22C49.71 102.11 49.96 104.51 49.93 104.55C49.9 104.58 49.31 104.64 48.63 104.67C47.43 104.73 47.37 104.7 47.31 104.04C47.26 103.43 47.16 103.36 46.44 103.42C45.7 103.47 45.62 103.56 45.56 104.35C45.49 105.19 45.43 105.24 44.23 105.48C43.54 105.62 42.96 105.71 42.93 105.69C42.9 105.66 43.16 103.07 44.13 94.22L45.63 93.93C46.45 93.78 47.49 93.64 47.94 93.62ZM156.31 93.72C156.83 93.79 157.64 94.01 158.13 94.22C158.61 94.43 159.22 94.96 159.5 95.41C159.94 96.13 160 96.66 160 100.04C160 103.74 159.98 103.88 159.38 104.6C158.84 105.25 158.58 105.35 157.56 105.35C156.91 105.35 155.9 105.13 155.31 104.85C154.66 104.55 154.08 104.04 153.82 103.54C153.5 102.93 153.37 101.93 153.3 99.47C153.24 97.56 153.31 95.84 153.48 95.28C153.67 94.6 153.97 94.24 154.56 93.97C155.05 93.74 155.75 93.64 156.31 93.72Z" />
		<path class="shp0" d="M156.13 96C156.01 96.1 155.94 97.57 155.96 99.27C155.98 100.96 156.06 102.52 156.13 102.73C156.19 102.93 156.47 103.1 156.75 103.1C157.23 103.1 157.25 102.96 157.19 99.54C157.14 96.55 157.06 95.97 156.74 95.9C156.52 95.86 156.25 95.91 156.13 96ZM46.13 97.97C46.05 98.94 45.93 100.15 45.87 100.66C45.79 101.31 45.85 101.6 46.06 101.6C46.23 101.6 46.52 101.51 46.69 101.41C46.94 101.27 46.95 100.72 46.74 98.85C46.59 97.54 46.43 96.42 46.37 96.35C46.32 96.28 46.21 97.01 46.13 97.97Z" />
		<path class="shp1" d="M100.78 109.92C100.61 111.33 100.32 113.78 100.13 115.37C99.94 116.95 99.38 121.62 98.89 125.75C98.39 129.88 97.94 133.51 97.87 133.82C97.75 134.38 97.76 134.38 101.06 134.39L104.38 134.39C104.67 132.54 104.75 131.58 104.75 131.07L104.75 130.13L109 130.13C109.21 132.55 109.33 133.54 109.39 133.88C109.51 134.51 109.51 134.51 112.76 134.57L116 134.63C115.81 133.76 115.07 127.71 114.23 120.62C113.3 112.78 112.59 107.66 112.41 107.55C112.25 107.45 109.64 107.36 106.6 107.36L101.08 107.36M79.38 108.11C76.49 108.36 74.1 108.57 74.06 108.58C74.03 108.6 74 109.79 74 111.24L74 113.86C75.07 113.68 75.94 113.6 76.63 113.57L77.88 113.51L78 135.39C79.45 135.21 80.97 135.1 82.31 135.02L84.75 134.88L84.88 112.99L88.75 112.86L88.75 107.61C85.55 107.65 82.26 107.87 79.38 108.11ZM124.69 108.32C124.69 108.41 124.7 108.65 124.72 108.86C124.73 109.07 125.54 115.15 126.5 122.37C127.47 129.6 128.28 135.53 128.32 135.56C128.35 135.59 130.06 135.79 132.13 136C134.19 136.22 136.02 136.45 136.19 136.52C136.38 136.59 136.55 136.37 136.62 135.95C136.68 135.57 137.02 132.95 137.38 130.13C137.73 127.31 138.05 124.89 138.1 124.75C138.14 124.61 138.24 124.84 138.33 125.25C138.41 125.66 138.78 128.42 139.15 131.38C139.52 134.34 139.83 136.79 139.85 136.82C139.86 136.85 141.68 137.16 143.88 137.5C146.07 137.85 147.9 138.1 147.93 138.07C147.96 138.04 148.33 135.48 148.76 132.38C149.2 129.29 150.03 123.37 150.62 119.24C151.2 115.12 151.67 111.71 151.65 111.69C151.64 111.66 150.16 111.4 148.38 111.12C146.59 110.83 145.1 110.63 145.06 110.67C145.02 110.71 144.84 112.09 144.64 113.74C144.45 115.39 144.1 118.54 143.87 120.75C143.64 122.95 143.37 125.09 143.27 125.5C143.13 126.07 143.01 125.56 142.78 123.37C142.61 121.79 142.25 118.5 141.98 116.05C141.72 113.61 141.5 111.27 141.5 110.86C141.5 110.29 141.37 110.08 140.94 109.99C140.63 109.92 139.17 109.72 137.69 109.55C136.21 109.38 135 109.32 135 109.42C135 109.53 134.66 112.68 134.25 116.43C133.84 120.18 133.43 123.64 133.34 124.12C133.26 124.61 133.14 124.89 133.09 124.75C133.04 124.61 132.61 121.01 132.13 116.74C131.65 112.47 131.23 108.95 131.19 108.91C131.16 108.88 130.11 108.74 128.88 108.6C127.64 108.47 126.19 108.32 125.66 108.26C125.13 108.2 124.69 108.23 124.69 108.32ZM61.38 110.01C60.14 110.19 57.27 110.64 55 111.01C52.73 111.38 50.62 111.78 50.31 111.9C49.78 112.1 49.75 112.25 49.75 114.49C49.75 115.8 49.83 116.92 49.94 116.98C50.04 117.04 50.94 116.93 51.94 116.73L53.75 116.37C53.74 133.14 53.79 138.07 53.85 138.14C53.92 138.21 55.47 138.04 57.3 137.76L60.63 137.26L60.75 115.37C62.01 115.19 62.91 115.08 63.56 115L64.75 114.86C64.75 109.67 64.74 109.61 64.19 109.64C63.88 109.65 62.61 109.82 61.38 110.01Z" />
		<path class="shp0" d="M106.04 118.43C105.74 121.91 105.49 124.95 105.49 125.19C105.5 125.56 105.74 125.63 107 125.63C108.5 125.63 108.5 125.63 108.38 124.94C108.31 124.56 107.97 121.57 107.63 118.31C107.28 115.04 107 112.31 107 112.24C107 112.17 106.91 112.11 106.8 112.11C106.69 112.11 106.35 114.96 106.04 118.43Z" />
		<path class="shp1" d="M163.42 114.65C163.34 114.98 162.99 117.61 162.64 120.5C162.3 123.39 161.67 128.57 161.26 132.01C160.85 135.45 160.45 138.74 160.38 139.33C160.26 140.28 160.31 140.4 160.81 140.52C161.12 140.59 162.56 140.91 164 141.23L166.63 141.81C166.89 140.23 166.97 139.29 166.98 138.7C167 137.85 167.09 137.64 167.44 137.66C167.68 137.68 168.61 137.87 169.5 138.1L171.13 138.51L171.63 143.02C176.28 144.26 177.68 144.63 177.75 144.63C177.82 144.64 177.57 141.91 177.21 138.57C176.84 135.24 176.19 129.41 175.77 125.63C175.34 121.84 174.91 118.27 174.81 117.68L174.63 116.62C167.46 114.9 164.97 114.33 164.47 114.23C163.67 114.08 163.55 114.13 163.42 114.65ZM32.63 115.33C31.8 115.57 30.57 116.04 29.9 116.38C29.23 116.72 28.18 117.44 27.56 117.99C26.95 118.54 26.15 119.61 25.79 120.37L25.13 121.75L25.13 139.76C26.17 141.62 26.75 142.18 27.5 142.59C28.5 143.12 28.85 143.18 30.75 143.07C32 143 33.54 142.72 34.5 142.39C35.39 142.09 36.72 141.46 37.44 140.99C38.16 140.52 39.14 139.61 39.61 138.95C40.08 138.3 40.67 137.14 40.92 136.39C41.32 135.18 41.38 134.06 41.38 127.13C41.38 122.79 41.29 118.82 41.19 118.31C41.08 117.79 40.63 116.96 40.19 116.45C39.74 115.95 39.01 115.38 38.56 115.2C38.12 115.02 36.93 114.87 35.94 114.88C34.94 114.89 33.45 115.09 32.63 115.33Z" />
		<path class="shp0" d="M32.25 120.85L31.54 121.58C31.5 135.54 31.56 136.85 31.87 137.32C32.08 137.63 32.48 137.89 32.75 137.89C33.02 137.89 33.56 137.62 33.94 137.28L34.63 136.68C34.75 122.4 34.7 121.16 34.38 120.68C34.17 120.37 33.77 120.12 33.48 120.12C33.2 120.12 32.64 120.45 32.25 120.85ZM168.94 120.4C168.85 120.59 168.54 123.28 168.26 126.38C167.98 129.47 167.75 132.32 167.75 132.7C167.75 133.32 167.86 133.41 169.06 133.65C169.78 133.8 170.43 133.85 170.5 133.76C170.57 133.67 170.3 130.6 169.91 126.92C169.52 123.25 169.17 120.2 169.15 120.15C169.12 120.09 169.03 120.21 168.94 120.4Z" />
		<path class="shp2" d="M88.06 144.86C88.02 145.06 86.5 145.18 83.31 145.25C80.73 145.31 77.11 145.48 75.25 145.62C73.39 145.76 70.53 146 68.88 146.15C67.22 146.3 65.23 146.47 64.44 146.53L63 146.65C62.98 216.07 63.01 217.86 63.43 218.27C63.67 218.51 63.96 218.71 64.06 218.71C64.17 218.72 64.81 219.28 65.5 219.97C66.19 220.66 66.86 221.22 67 221.22C67.14 221.22 67.56 221.54 67.94 221.92C68.32 222.3 69.02 222.89 69.5 223.22C69.98 223.55 70.54 224.02 70.75 224.26C70.96 224.51 71.27 224.71 71.44 224.71C71.61 224.72 72.09 225.06 72.5 225.48C72.91 225.89 73.33 226.22 73.44 226.22C73.54 226.21 73.99 226.55 74.44 226.97C74.88 227.39 75.33 227.73 75.44 227.73C75.54 227.73 75.96 228.01 76.38 228.36C76.79 228.71 77.21 228.99 77.31 228.99C77.42 228.98 77.78 229.26 78.13 229.6C78.47 229.95 78.89 230.23 79.06 230.24C79.23 230.25 79.54 230.44 79.75 230.68C79.96 230.92 80.44 231.28 80.82 231.48C81.2 231.69 81.51 231.94 81.51 232.04C81.5 232.15 81.7 232.23 81.94 232.23C82.18 232.23 82.54 232.45 82.75 232.73C82.96 233.01 83.29 233.24 83.5 233.23C83.71 233.23 84.04 233.46 84.25 233.73C84.46 234.01 84.82 234.24 85.06 234.24C85.3 234.24 85.5 234.35 85.5 234.48C85.5 234.62 85.64 234.73 85.81 234.73C85.98 234.73 86.38 234.95 86.69 235.23C87 235.51 87.42 235.74 87.63 235.74C87.83 235.74 88 235.85 88 235.99C88 236.12 88.17 236.24 88.38 236.24C88.71 236.24 88.76 230.99 88.81 190.72C88.86 150.52 88.82 145.17 88.49 144.89C88.23 144.67 88.1 144.67 88.06 144.86Z" />
		<path class="shp1" d="M91.56 144.82L88.75 144.89L88.63 236.51C93.66 239.37 96.03 240.64 97.13 241.16C99.01 242.06 99.26 242.12 101.53 242.12C103.92 242.12 103.94 242.11 106.53 240.81C107.96 240.1 110.25 238.85 111.63 238.05L114.13 236.59L114.25 144.89C110.86 144.79 106.39 144.75 102.13 144.75C97.86 144.74 93.11 144.77 91.56 144.82Z" />
		<path class="shp2" d="M114.31 145.12C114.23 145.18 114.19 165.71 114.21 190.73C114.25 230.99 114.29 236.24 114.63 236.24C114.83 236.24 115 236.12 115 235.99C115 235.85 115.2 235.73 115.44 235.73C115.68 235.72 116.04 235.52 116.25 235.29C116.46 235.05 116.79 234.82 117 234.78C117.21 234.73 117.4 234.59 117.44 234.47C117.47 234.34 117.7 234.24 117.94 234.24C118.18 234.24 118.54 234.01 118.75 233.73C118.96 233.46 119.32 233.23 119.56 233.23C119.8 233.23 120 233.15 119.99 233.05C119.99 232.94 120.3 232.69 120.68 232.48C121.06 232.28 121.54 231.92 121.75 231.68C121.96 231.44 122.29 231.25 122.5 231.24C122.71 231.24 123.04 231.01 123.25 230.73C123.46 230.45 123.77 230.23 123.94 230.23C124.11 230.23 124.62 229.89 125.06 229.47C125.51 229.05 125.99 228.72 126.13 228.72C126.26 228.73 126.54 228.51 126.75 228.23C126.96 227.95 127.24 227.73 127.38 227.73C127.51 227.74 127.99 227.4 128.44 226.99C128.88 226.57 129.36 226.23 129.5 226.23C129.64 226.23 130.12 225.88 130.56 225.47C131.01 225.05 131.46 224.71 131.56 224.72C131.67 224.72 132.2 224.27 132.75 223.72C133.3 223.17 133.86 222.72 134 222.72C134.14 222.72 134.7 222.27 135.25 221.72C135.8 221.17 136.36 220.72 136.5 220.72C136.64 220.72 137.42 220.07 138.24 219.28L139.74 217.84L139.65 146.69C137.69 146.46 135.83 146.28 134.25 146.14C132.67 146 129.86 145.77 128 145.63C126.14 145.49 122.34 145.3 119.54 145.2C116.74 145.1 114.39 145.07 114.31 145.12Z" />
		<path class="shp1" d="M62.13 146.85C61.71 146.89 58.84 147.26 55.75 147.67C52.66 148.08 47.88 148.8 45.13 149.27C42.38 149.74 39.53 150.24 38.81 150.39L37.5 150.65L37.5 190.57C40.8 194.83 43.19 197.76 44.94 199.82C46.69 201.88 50.32 205.78 53 208.48C55.68 211.18 59 214.38 60.38 215.59L62.88 217.79C62.97 190.1 62.97 174.12 62.94 164.41L62.88 146.77M139.75 182.18C139.75 201.73 139.81 217.72 139.88 217.72C139.94 217.72 140.37 217.42 140.81 217.07C141.26 216.71 143.37 214.81 145.5 212.85C147.63 210.88 151.08 207.43 153.17 205.18C155.25 202.92 158.18 199.61 159.67 197.82C161.16 196.03 163.02 193.72 163.81 192.69L165.24 190.82C165.25 159.69 165.17 150.61 165.06 150.55C164.96 150.5 162.23 149.99 159 149.43C155.77 148.87 150.54 148.07 147.38 147.65C144.21 147.24 141.2 146.84 140.69 146.77L139.76 146.64" />
		<path class="shp2" d="M36.38 150.9C36.1 151.02 35.45 151.12 34.94 151.13C34.42 151.14 34 151.26 34 151.4C34 151.54 33.52 151.7 32.94 151.75C32.35 151.81 31.37 151.99 30.75 152.15C30.13 152.31 29.2 152.49 28.69 152.55C28.17 152.61 27.69 152.77 27.63 152.9C27.56 153.04 27.05 153.15 26.5 153.15C25.95 153.15 25.44 153.27 25.38 153.4C25.31 153.54 24.86 153.65 24.38 153.65C23.89 153.65 23.5 153.77 23.5 153.9C23.5 154.04 23.11 154.15 22.63 154.15C22.14 154.15 21.69 154.27 21.63 154.4C21.56 154.54 21.16 154.65 20.75 154.65C20.34 154.65 20 154.77 20 154.9C20 155.04 19.65 155.16 19.22 155.16C18.8 155.16 18.34 155.24 18.2 155.34C18.04 155.47 18.05 155.73 18.23 156.09C18.38 156.4 18.61 156.88 18.75 157.16C18.89 157.43 19 157.88 19 158.16C19 158.43 19.11 158.66 19.25 158.66C19.39 158.66 19.5 158.88 19.5 159.16C19.5 159.43 19.61 159.66 19.75 159.66C19.89 159.66 20 159.83 20 160.04C20 160.24 20.11 160.64 20.25 160.91C20.39 161.19 20.61 161.64 20.75 161.91C20.89 162.19 21 162.58 21 162.79C21 162.99 21.11 163.16 21.25 163.16C21.39 163.16 21.5 163.39 21.5 163.66C21.5 163.94 21.61 164.16 21.75 164.16C21.89 164.16 22 164.39 22 164.66C22 164.94 22.11 165.17 22.25 165.17C22.39 165.17 22.5 165.39 22.5 165.67C22.5 165.94 22.61 166.17 22.75 166.17C22.89 166.17 23 166.39 23 166.67C23 166.94 23.11 167.17 23.25 167.17C23.39 167.17 23.5 167.39 23.5 167.67C23.5 167.94 23.61 168.17 23.75 168.17C23.89 168.17 24 168.39 24 168.67C24 168.94 24.11 169.17 24.25 169.17C24.39 169.17 24.5 169.39 24.5 169.67C24.5 169.94 24.61 170.17 24.75 170.17C24.89 170.17 25 170.4 25 170.67C25 170.95 25.11 171.17 25.25 171.17C25.39 171.17 25.5 171.4 25.5 171.67C25.5 171.95 25.58 172.17 25.69 172.18C25.79 172.18 26.16 172.74 26.5 173.43C26.84 174.12 27.21 174.68 27.31 174.68C27.42 174.68 27.5 174.9 27.5 175.18C27.5 175.45 27.61 175.68 27.75 175.68C27.89 175.68 28 175.9 28 176.18C28 176.45 28.08 176.67 28.19 176.67C28.29 176.66 28.54 177 28.75 177.43C28.96 177.85 29.21 178.19 29.31 178.19C29.42 178.18 29.5 178.38 29.5 178.62C29.5 178.86 29.72 179.22 30 179.43C30.28 179.64 30.5 179.95 30.5 180.12C30.5 180.29 30.73 180.68 31 180.99C31.28 181.3 31.51 181.7 31.5 181.87C31.5 182.04 31.61 182.18 31.75 182.18C31.89 182.18 32 182.32 32 182.49C31.99 182.67 32.19 183.03 32.43 183.31C32.68 183.58 33.04 184.12 33.25 184.5C33.46 184.89 33.71 185.2 33.81 185.19C33.92 185.19 34 185.33 33.99 185.5C33.99 185.67 34.32 186.18 34.74 186.62C35.16 187.07 35.5 187.52 35.49 187.63C35.49 187.73 35.82 188.18 36.24 188.63C36.66 189.07 37 189.61 37 189.81C37 190.02 37.11 190.19 37.25 190.19C37.41 190.19 37.5 183.43 37.5 170.42C37.5 154.76 37.44 150.65 37.19 150.67C37.02 150.68 36.65 150.78 36.38 150.9ZM165.27 170.58C165.23 188.83 165.26 190.53 165.63 190.19C165.84 189.98 166.02 189.73 166.01 189.63C166.01 189.52 166.28 189.16 166.63 188.81C166.97 188.47 167.25 188.08 167.25 187.94C167.25 187.8 167.53 187.41 167.88 187.06C168.22 186.72 168.5 186.3 168.5 186.12C168.5 185.95 168.72 185.64 169 185.44C169.28 185.23 169.5 184.89 169.5 184.68C169.5 184.48 169.72 184.14 170 183.93C170.28 183.73 170.51 183.39 170.51 183.18C170.52 182.98 170.71 182.64 170.95 182.43C171.19 182.23 171.55 181.74 171.75 181.36C171.96 180.98 172.21 180.67 172.31 180.67C172.42 180.68 172.5 180.46 172.5 180.18C172.5 179.9 172.61 179.68 172.75 179.68C172.89 179.68 173 179.48 173 179.24C173 179 173.22 178.63 173.5 178.43C173.78 178.22 174 177.86 174 177.62C174 177.37 174.11 177.18 174.25 177.18C174.39 177.18 174.5 177.04 174.5 176.86C174.49 176.69 174.72 176.3 175 175.99C175.27 175.68 175.5 175.26 175.5 175.05C175.5 174.84 175.61 174.67 175.75 174.67C175.89 174.67 176 174.45 176 174.17C176 173.9 176.11 173.67 176.25 173.67C176.39 173.67 176.5 173.45 176.5 173.17C176.5 172.9 176.58 172.67 176.69 172.68C176.79 172.68 177.16 172.12 177.5 171.43C177.84 170.74 178.21 170.18 178.31 170.17C178.42 170.17 178.5 169.94 178.5 169.67C178.5 169.39 178.61 169.17 178.75 169.17C178.89 169.17 179 168.94 179 168.67C179 168.39 179.11 168.17 179.25 168.17C179.39 168.17 179.5 167.94 179.5 167.67C179.5 167.39 179.61 167.17 179.75 167.17C179.89 167.17 180 166.94 180 166.67C180 166.39 180.11 166.17 180.25 166.17C180.39 166.17 180.5 165.94 180.5 165.67C180.5 165.39 180.61 165.17 180.75 165.17C180.89 165.17 181 165 181 164.79C181 164.58 181.24 163.94 181.53 163.35C181.82 162.77 182.16 162.09 182.28 161.85C182.4 161.61 182.5 161.24 182.5 161.04C182.5 160.83 182.61 160.66 182.75 160.66C182.89 160.66 183 160.44 183 160.16C183 159.88 183.08 159.66 183.19 159.66C183.29 159.67 183.54 159.1 183.75 158.41C183.96 157.72 184.21 157.15 184.31 157.15C184.42 157.16 184.5 156.88 184.5 156.53C184.5 156.19 184.61 155.85 184.75 155.78C184.89 155.71 185 155.54 185 155.41C185 155.27 184.61 155.16 184.13 155.16C183.64 155.16 183.19 155.04 183.13 154.9C183.06 154.77 182.66 154.65 182.25 154.65C181.84 154.65 181.5 154.54 181.5 154.4C181.5 154.27 181.11 154.15 180.63 154.15C180.14 154.15 179.69 154.04 179.63 153.9C179.56 153.77 179.13 153.61 178.69 153.55C178.24 153.49 177.54 153.37 177.13 153.28C176.71 153.19 176.15 153.02 175.88 152.9C175.6 152.78 175.04 152.63 174.63 152.56C174.21 152.49 173.37 152.31 172.75 152.17C172.13 152.02 171.06 151.78 170.38 151.64C169.69 151.49 168.62 151.27 168 151.15C167.38 151.02 166.52 150.85 166.1 150.76L165.32 150.59M100.63 219.72C100.14 220.69 99.9 220.94 99.56 220.82C99.32 220.73 98.93 220.59 98.69 220.5C98.28 220.35 98.27 220.44 98.62 221.85C98.82 222.67 98.98 223.74 98.98 224.22L98.99 225.1C97.45 223.45 96.89 223.03 96.75 223.1C96.61 223.17 96.5 223.39 96.5 223.6C96.5 223.81 96.36 223.97 96.19 223.97C96.02 223.97 95.48 223.86 95 223.73C94.52 223.6 94.09 223.51 94.04 223.54C94 223.57 94.1 224.22 94.26 224.97C94.52 226.18 94.51 226.37 94.15 226.54C93.8 226.7 93.82 226.8 94.31 227.37C94.62 227.73 95.48 228.49 96.21 229.06C97.42 230 97.53 230.18 97.4 230.86L97.26 231.61C99.29 231.34 100.18 231.26 100.56 231.25L101.25 231.23C101.2 234.04 101.2 235 101.22 235.17C101.23 235.34 101.36 235.43 101.5 235.36C101.64 235.29 101.74 234.48 101.73 233.55C101.72 232.62 101.72 231.72 101.73 231.54C101.75 231.31 102.18 231.27 103.44 231.38C104.37 231.46 105.23 231.55 105.37 231.57C105.5 231.59 105.58 231.27 105.54 230.86C105.47 230.19 105.68 229.92 107.36 228.54C109.18 227.04 109.23 226.96 108.75 226.6C108.28 226.25 108.27 226.16 108.61 224.91C108.81 224.19 108.95 223.58 108.93 223.55C108.9 223.52 108.39 223.64 107.79 223.8C106.88 224.05 106.68 224.04 106.49 223.72C106.36 223.52 106.21 223.24 106.15 223.1C106.09 222.96 105.59 223.35 105.06 223.97C104.52 224.59 104.01 224.99 103.93 224.85C103.86 224.71 103.95 223.7 104.15 222.6C104.35 221.5 104.45 220.57 104.38 220.53C104.31 220.5 104.03 220.58 103.75 220.72C103.47 220.86 103.14 220.91 103 220.85C102.86 220.78 102.53 220.21 102.25 219.59C101.97 218.98 101.64 218.47 101.5 218.47C101.37 218.47 100.97 219.03 100.63 219.72Z" />
	</g>
</svg>