<svg xmlns="http://www.w3.org/2000/svg" viewBox="0 0 121 250" width="121" height="250">
	<style>
		tspan { white-space:pre }
		.shp0 { fill: #fffdfe } 
		.shp1 { fill: #542d7c } 
		.shp2 { fill: #53abac } 
	</style>
	<g >
		<path class="shp0" d="M59.03 0.83C58.42 1.26 55.67 3.15 52.91 5.01C50.15 6.88 46.73 9.2 45.31 10.16C43.9 11.12 35.8 16.6 27.31 22.34L11.88 32.76C11.58 36.31 11.44 37.89 11.37 38.57C11.31 39.24 10.77 46.01 10.16 53.62C9.56 61.23 8.46 75.12 7.72 84.48C6.97 93.84 5.64 110.53 4.77 121.57C3.89 132.62 2.85 145.67 2.45 150.59C2.05 155.5 1.34 164.43 0.86 170.42C0 181.2 -0.01 181.45 0.06 193.55L0.12 205.79C31.63 228.85 42.93 237.12 45.56 239.06C48.19 241 52.62 244.25 55.42 246.29L60.5 250C87.55 230.2 96.4 223.72 97.61 222.83C98.82 221.93 102.4 219.32 105.57 217.01C108.73 214.71 113.47 211.24 116.1 209.31L120.88 205.8C120.87 178.71 120.86 178.56 119.95 167.36C119.45 161.17 118.87 154.17 118.67 151.81C118.46 149.46 117.75 140.64 117.08 132.22C116.42 123.81 115.81 116.26 115.75 115.45C115.68 114.64 115.24 109.13 114.77 103.21C114.3 97.28 113.85 91.55 113.77 90.48C113.69 89.4 113.58 88.13 113.52 87.66C113.47 87.19 113.2 83.77 112.92 80.07C112.64 76.37 111.69 64.24 110.81 53.13C109.76 39.79 109.11 32.84 108.92 32.65C108.76 32.5 99.21 26.01 87.69 18.23C76.17 10.45 65.4 3.17 63.75 2.04C62.1 0.92 60.61 0.01 60.44 0.02C60.27 0.03 59.64 0.39 59.03 0.83Z" />
		<path class="shp1" d="M59.77 6.93C59.56 7.12 54.77 10.4 49.11 14.21C43.45 18.02 35.63 23.31 31.72 25.95C27.81 28.59 22.93 31.91 20.87 33.31C17.61 35.54 17.11 35.97 17.02 36.61C16.97 37.01 16.81 38.99 16.66 41.01C16.51 43.03 16.18 47.33 15.92 50.56C15.65 53.8 14.44 68.95 13.23 84.23C12.01 99.52 10.8 114.67 10.54 117.9C10.27 121.13 9.88 125.98 9.67 128.67C9.46 131.37 9.13 135.55 8.94 137.98C8.75 140.4 7.92 150.81 7.1 161.12C6.28 171.42 5.65 179.96 5.71 180.09C5.77 180.23 11.4 184.47 18.24 189.52C25.07 194.57 33.27 200.63 36.46 202.99C39.66 205.34 46.24 210.21 51.08 213.8C55.92 217.39 60.05 220.4 60.26 220.48C60.49 220.58 61.91 219.69 64.22 217.99C66.19 216.54 74.46 210.44 82.59 204.43C90.71 198.42 101.28 190.62 106.06 187.08C110.84 183.55 114.9 180.54 115.08 180.38C115.34 180.15 115.35 179.46 115.14 176.67C114.99 174.78 114.76 171.91 114.63 170.3C114.5 168.68 114.17 164.61 113.9 161.24C113.63 157.87 112.53 143.99 111.45 130.39C110.37 116.79 109.27 102.9 109 99.53C108.73 96.17 108.4 92.06 108.26 90.41C108.13 88.76 107.91 86.01 107.77 84.29C107.63 82.58 107.41 79.85 107.28 78.23C107.14 76.62 106.37 66.86 105.56 56.56C104.76 46.26 104.04 37.39 103.97 36.85C103.86 35.94 103.71 35.77 101.71 34.38C100.53 33.56 90.86 27.01 80.22 19.83C69.58 12.65 60.7 6.73 60.5 6.68C60.3 6.63 59.97 6.74 59.77 6.93Z" />
		<path class="shp0" d="M51.68 25.01C46.9 28.25 39.46 33.28 35.15 36.19C30.84 39.1 27.26 41.55 27.19 41.65C27.12 41.74 26.64 47.15 26.13 53.66C25.61 60.17 24.98 68.03 24.73 71.13C24.48 74.23 24.05 79.63 23.77 83.13C23.49 86.63 23.15 90.87 23.02 92.56C22.88 94.24 22.66 96.99 22.52 98.68C22.39 100.36 22.17 103.06 22.04 104.68C21.92 106.29 21.7 108.99 21.56 110.68C21.42 112.36 20.53 123.49 19.59 135.41C18.65 147.32 17.71 159.06 17.52 161.48C17.32 163.91 16.99 167.98 16.78 170.54C16.57 173.1 16.49 175.27 16.59 175.35C16.69 175.44 24.41 181.14 33.74 188.02C43.07 194.91 50.76 200.54 50.82 200.54C50.89 200.54 50.97 191.54 51.01 180.53L51.07 160.53C58.28 155.86 60.43 154.51 60.5 154.51C60.57 154.51 62.72 155.86 65.28 157.52L69.93 160.53C70.03 191.54 70.11 200.54 70.18 200.54C70.24 200.54 77.93 194.91 87.26 188.02C96.59 181.14 104.3 175.44 104.4 175.35C104.5 175.27 104.42 173.21 104.22 170.79C104.03 168.36 103.64 163.57 103.37 160.14C103.1 156.7 102.76 152.46 102.62 150.71C102.48 148.96 102.26 146.26 102.14 144.71C102.02 143.16 101.8 140.46 101.66 138.71C101.52 136.96 101.19 132.77 100.92 129.41C100.65 126.04 100.21 120.5 99.94 117.1C99.67 113.7 99.22 108.14 98.95 104.74C98.68 101.34 98.24 95.86 97.98 92.56C97.72 89.26 97.28 83.75 97 80.31C96.73 76.88 96.39 72.64 96.25 70.89C96.11 69.14 95.9 66.44 95.77 64.89C95.65 63.34 95.43 60.64 95.29 58.89C95.15 57.14 94.82 52.95 94.55 49.58C94.28 46.22 94.06 43.1 94.06 42.67C94.06 42.23 93.92 41.75 93.75 41.6C93.58 41.45 89.64 38.76 84.99 35.62C80.35 32.48 72.93 27.48 68.52 24.51C64.11 21.53 60.47 19.1 60.44 19.11C60.41 19.12 56.46 21.77 51.68 25.01Z" />
		<path class="shp2" d="M53.22 33.39C49.42 35.97 44.77 39.12 42.88 40.4C40.68 41.89 39.44 42.88 39.44 43.16C39.44 43.39 39.93 45.87 40.55 48.67C41.16 51.46 41.76 54.21 41.89 54.79C42.02 55.36 42.23 56.3 42.36 56.87C42.48 57.44 42.7 58.4 42.84 59.01C42.98 59.62 43.77 63.2 44.59 66.97C45.41 70.74 46.3 74.82 46.57 76.03C46.84 77.24 47.16 78.7 47.29 79.27C47.41 79.85 47.62 80.78 47.76 81.35C47.89 81.93 48.39 84.21 48.89 86.43C49.38 88.66 49.98 91.41 50.22 92.56C50.46 93.7 50.88 95.63 51.15 96.84C51.42 98.05 51.99 100.64 52.42 102.6C52.85 104.55 53.4 107.08 53.64 108.23C53.89 109.37 54.31 111.3 54.57 112.51C54.84 113.72 55.24 115.54 55.46 116.55C55.68 117.56 55.97 118.86 56.1 119.43C56.23 120 56.44 120.94 56.57 121.51C56.7 122.08 57.37 125.14 58.06 128.31C58.74 131.47 59.53 135.05 59.79 136.26C60.06 137.48 60.38 138.91 60.5 139.45C60.61 139.99 60.82 140.92 60.96 141.53C61.09 142.13 61.43 143.62 61.69 144.83C61.96 146.05 62.31 147.64 62.46 148.38L62.74 149.73C69.15 153.91 72.55 156.11 74.42 157.32C76.3 158.53 79.29 160.46 81.07 161.61C82.85 162.75 85.83 164.68 87.71 165.89C89.58 167.1 92.27 168.84 93.69 169.75C95.1 170.66 96.31 171.37 96.38 171.34C96.45 171.31 96.4 170.18 96.27 168.83C96.15 167.48 95.92 164.84 95.78 162.95C95.63 161.07 95.41 158.26 95.28 156.71C95.16 155.16 94.94 152.41 94.8 150.59C94.66 148.77 94.43 146.01 94.31 144.47C94.18 142.92 93.96 140.16 93.81 138.34C93.67 136.53 93.45 133.77 93.32 132.22C93.2 130.67 92.98 127.92 92.84 126.1C92.69 124.28 92.47 121.47 92.34 119.86C92.21 118.24 91.99 115.6 91.86 113.98C91.73 112.37 91.51 109.56 91.37 107.74C91.22 105.92 91 103.05 90.86 101.37C90.73 99.69 90.51 97.04 90.39 95.49C90.26 93.95 90.04 91.22 89.9 89.43C89.76 87.65 89.53 84.73 89.39 82.95C89.26 81.16 89.04 78.43 88.91 76.89C88.79 75.34 88.57 72.58 88.42 70.76C88.28 68.95 88.05 66.08 87.91 64.4C87.78 62.71 87.57 60.12 87.45 58.64C87.32 57.16 87.1 54.41 86.95 52.52C86.81 50.64 86.64 48.41 86.58 47.56L86.46 46.03C80.1 41.74 75.34 38.53 71.77 36.13C68.2 33.72 64.26 31.06 63.01 30.2C61.76 29.35 60.61 28.66 60.44 28.67C60.27 28.69 57.02 30.81 53.22 33.39ZM34.42 47.42C34.31 47.51 34.23 48.17 34.25 48.89C34.27 49.61 34.19 51.22 34.06 52.46C33.93 53.71 33.71 56.32 33.56 58.28C33.41 60.23 33.19 63.09 33.06 64.64C32.94 66.19 32.72 68.95 32.58 70.76C32.43 72.58 32.21 75.34 32.09 76.89C31.96 78.43 31.75 81.13 31.61 82.88C31.47 84.64 31.24 87.5 31.1 89.25C30.97 91 30.75 93.7 30.62 95.25C30.49 96.8 30.27 99.55 30.13 101.37C29.98 103.19 29.76 105.94 29.64 107.49C29.51 109.04 29.3 111.69 29.17 113.37C29.03 115.05 28.81 117.89 28.67 119.67C28.53 121.46 28.3 124.38 28.16 126.16C28.02 127.95 27.8 130.67 27.67 132.22C27.55 133.77 27.33 136.47 27.19 138.22C27.05 139.97 26.83 142.73 26.7 144.34C26.57 145.96 26.35 148.77 26.2 150.59C26.06 152.41 25.84 155.16 25.72 156.71C25.59 158.26 25.37 161.07 25.22 162.95C25.08 164.84 24.86 167.43 24.73 168.71C24.61 169.99 24.59 171.1 24.69 171.19C24.78 171.27 25.64 170.83 26.6 170.21C27.55 169.59 30.22 167.86 32.53 166.38C34.84 164.9 38.64 162.45 40.96 160.95C43.29 159.44 46.68 157.25 48.5 156.07C50.32 154.9 53.04 153.13 54.56 152.14C56.33 150.99 57.32 150.19 57.32 149.91C57.32 149.68 56.93 147.72 56.44 145.57C55.96 143.41 55.36 140.71 55.11 139.57C54.86 138.42 54.31 135.89 53.89 133.94C53.46 131.98 52.89 129.4 52.62 128.18C52.35 126.97 51.93 125.04 51.68 123.9C51.44 122.75 51 120.77 50.72 119.49C50.43 118.21 49.98 116.12 49.71 114.84C49.43 113.56 49.06 111.85 48.87 111.04C48.68 110.24 48.18 107.98 47.76 106.02C47.34 104.07 46.78 101.48 46.51 100.27C46.24 99.06 45.91 97.57 45.77 96.96C45.64 96.36 45.43 95.42 45.3 94.88C45.18 94.34 44.52 91.31 43.84 88.15C43.15 84.98 42.38 81.43 42.11 80.25C41.85 79.07 41.43 77.15 41.17 75.97C40.9 74.79 40.35 72.23 39.93 70.27C39.5 68.32 38.95 65.76 38.68 64.58C38.42 63.4 38 61.47 37.74 60.3C37.47 59.12 36.85 56.34 36.36 54.11C35.86 51.89 35.35 49.52 35.22 48.85C35.09 48.18 34.91 47.54 34.81 47.44C34.71 47.33 34.54 47.32 34.42 47.42Z" />
		<path class="shp0" d="M54.5 163.73C54.39 163.82 54.31 165.8 54.34 168.14L54.38 172.38C55.58 172.38 55.6 172.32 55.59 170.85C55.59 169.35 55.6 169.31 56.51 168.71L57.44 168.09C57.54 164.83 57.46 164.07 57.25 163.86C57.09 163.69 56.44 163.55 55.83 163.55C55.21 163.56 54.61 163.64 54.5 163.73ZM59.16 163.72C59.05 163.81 58.97 165.8 58.99 168.14L59.03 172.38C60.24 172.38 60.26 172.35 60.26 170.42L60.26 168.46C61.55 168.46 61.71 168.36 61.66 168.03C61.62 167.76 61.35 167.58 60.93 167.54C60.28 167.48 60.26 167.44 60.26 166.01L60.26 164.54C61.79 164.54 61.96 164.45 61.91 164.12C61.86 163.78 61.56 163.67 60.61 163.62C59.93 163.58 59.28 163.62 59.16 163.72ZM63.5 164.06C62.98 164.52 62.95 164.73 62.94 168.03C62.93 171.07 62.99 171.58 63.37 171.95C63.61 172.18 64.19 172.37 64.68 172.37C65.15 172.38 65.68 172.24 65.84 172.07C66.01 171.91 66.14 171.3 66.14 170.73C66.13 169.85 66.06 169.69 65.64 169.69C65.27 169.69 65.14 169.87 65.09 170.48C65.05 171 64.9 171.28 64.66 171.28C64.36 171.28 64.3 170.75 64.3 167.97C64.3 165.2 64.36 164.67 64.66 164.67C64.9 164.67 65.05 164.95 65.09 165.46C65.14 166.07 65.27 166.26 65.64 166.26C66.06 166.26 66.13 166.1 66.13 165.16C66.13 164.3 66.02 164 65.64 163.81C65.37 163.68 64.91 163.57 64.6 163.57C64.3 163.58 63.8 163.8 63.5 164.06Z" />
		<path class="shp1" d="M55.62 166.24C55.6 167.89 55.62 167.96 56.09 167.73C56.51 167.52 56.57 167.27 56.52 166.08C56.47 165 56.36 164.65 56.05 164.59C55.71 164.52 55.64 164.76 55.62 166.24Z" />
		<path class="shp0" d="M60.07 177.58C59.93 178.02 59.44 179.4 58.99 180.65L58.17 182.91L59.75 184.5L59.89 211.68L61.11 211.68L61.26 184.5C62.38 183.27 62.67 182.77 62.62 182.6C62.58 182.43 62.15 181.06 61.67 179.54C61.19 178.03 60.7 176.79 60.56 176.79C60.43 176.79 60.21 177.15 60.07 177.58ZM65.64 188.78C65.09 189.85 64.65 190.85 64.66 190.98C64.66 191.12 64.83 191.23 65.03 191.23C65.35 191.23 65.4 192.02 65.4 196.87L65.4 202.5C62.33 204.73 62.21 204.89 62.21 205.74C62.21 206.25 62.3 206.66 62.4 206.65C62.5 206.65 63.55 205.93 64.73 205.06L66.87 203.48C66.87 190.57 66.81 186.83 66.75 186.83C66.68 186.83 66.18 187.71 65.64 188.78ZM54.13 195.27L54.13 203.48C57.45 205.93 58.5 206.65 58.6 206.65C58.7 206.66 58.78 206.25 58.78 205.74C58.77 204.9 58.63 204.73 57.18 203.66L55.6 202.5C55.6 192.02 55.65 191.23 55.97 191.23C56.17 191.23 56.34 191.12 56.34 190.99C56.34 190.85 55.98 189.92 55.54 188.91C55.1 187.9 54.6 187.07 54.44 187.07C54.2 187.07 54.13 188.89 54.13 195.27Z" />
		<path class="shp2" d="M5.63 189.46C5.62 189.56 5.63 192.67 5.64 196.38C5.65 200.08 5.75 203.16 5.86 203.23C5.97 203.3 6.38 203.59 6.77 203.89C7.15 204.18 8.79 205.38 10.41 206.56C12.03 207.74 14.15 209.3 15.13 210.01C16.1 210.73 17.7 211.9 18.68 212.62C19.65 213.34 23.43 216.1 27.07 218.75C30.7 221.41 33.84 223.71 34.05 223.88C34.25 224.04 34.8 224.44 35.27 224.77C35.74 225.1 37.18 226.14 38.46 227.08C39.74 228.02 41.58 229.37 42.56 230.09C43.53 230.81 45.13 231.98 46.11 232.69C47.09 233.4 49.15 234.91 50.7 236.04C52.25 237.17 54.98 239.18 56.76 240.5C58.55 241.82 60.15 242.96 60.32 243.03C60.48 243.1 61.12 242.79 61.72 242.33C62.33 241.87 63.94 240.68 65.3 239.69C66.67 238.69 69.31 236.76 71.18 235.38C73.05 234.01 75.96 231.89 77.65 230.66C79.33 229.43 80.87 228.3 81.08 228.13C81.28 227.97 82.44 227.13 83.65 226.26C84.86 225.39 87.12 223.75 88.67 222.6C90.22 221.46 92.26 219.97 93.2 219.27C94.14 218.58 96.13 217.13 97.61 216.05C99.09 214.97 101.9 212.91 103.85 211.48C105.81 210.05 108.58 208.02 110.01 206.97C111.44 205.93 113.22 204.63 113.97 204.09L115.34 203.11C115.36 192.39 115.31 189.28 115.24 189.28C115.18 189.28 111.51 191.94 107.1 195.2C102.69 198.45 97.81 202.05 96.26 203.2C94.71 204.34 92.67 205.85 91.73 206.54C90.79 207.23 88.25 209.11 86.1 210.7C83.94 212.3 80.47 214.87 78.38 216.42C76.29 217.97 73.81 219.8 72.87 220.49C71.93 221.19 69.45 223.02 67.36 224.57C65.27 226.11 62.93 227.84 62.15 228.41C61.38 228.97 60.61 229.43 60.44 229.42C60.27 229.42 58.2 227.98 55.85 226.22C53.49 224.47 51.28 222.83 50.95 222.58C50.61 222.33 48.52 220.78 46.29 219.13C44.07 217.49 41.33 215.47 40.21 214.64C39.09 213.82 35.68 211.3 32.62 209.03C29.57 206.77 26.9 204.78 26.7 204.62C26.5 204.46 25.95 204.06 25.47 203.73C25 203.4 22.63 201.65 20.21 199.86C17.78 198.06 15.52 196.38 15.19 196.13C14.85 195.89 13.64 194.98 12.49 194.13C11.35 193.28 9.39 191.83 8.14 190.93C6.9 190.02 5.82 189.28 5.76 189.28C5.69 189.28 5.63 189.36 5.63 189.46Z" />
	</g>
</svg>